<svg xmlns="http://www.w3.org/2000/svg" width="48" height="48" viewBox="0 0 48 48"><title>assets</title><rect width="48" height="48" fill="none"/><path d="M30.422,29.092a3.493,3.493,0,0,1,1.324.261,3.381,3.381,0,0,1,1.132.749q.366.366.827.775t.949.854q.488.444.941.932a9.974,9.974,0,0,1,.819,1A4.951,4.951,0,0,1,37,34.736a3.133,3.133,0,0,1,.218,1.15,3.493,3.493,0,0,1-.261,1.324,3.381,3.381,0,0,1-.749,1.132q-.888.888-1.6,1.568a8.753,8.753,0,0,1-1.489,1.15,6.17,6.17,0,0,1-1.716.705A9.367,9.367,0,0,1,29.151,42a13.73,13.73,0,0,1-3.9-.592A21.891,21.891,0,0,1,21.26,39.77a27.749,27.749,0,0,1-3.885-2.491,34.863,34.863,0,0,1-3.6-3.153,34.6,34.6,0,0,1-3.127-3.606,27.717,27.717,0,0,1-2.456-3.876A22.2,22.2,0,0,1,6.584,22.69,13.485,13.485,0,0,1,6,18.866,9.453,9.453,0,0,1,6.235,16.6a6.2,6.2,0,0,1,.7-1.707,8.848,8.848,0,0,1,1.141-1.489q.679-.723,1.585-1.611a3.381,3.381,0,0,1,1.132-.749,3.493,3.493,0,0,1,1.324-.261,3.3,3.3,0,0,1,1.681.47,8.648,8.648,0,0,1,1.542,1.15,17.725,17.725,0,0,1,1.376,1.428q.645.749,1.185,1.289a3.381,3.381,0,0,1,.749,1.132,3.493,3.493,0,0,1,.261,1.324,3.126,3.126,0,0,1-.226,1.219,4.069,4.069,0,0,1-.566.967,6.715,6.715,0,0,1-.732.784q-.392.357-.732.688a4.678,4.678,0,0,0-.566.653,1.175,1.175,0,0,0-.226.688,1.461,1.461,0,0,0,.322.671,12.221,12.221,0,0,0,.862,1.071q.54.61,1.246,1.341t1.463,1.481q.758.749,1.516,1.481t1.411,1.359q.653.627,1.15,1.1t.723.7a1.189,1.189,0,0,0,.871.366,1.175,1.175,0,0,0,.688-.226,4.328,4.328,0,0,0,.645-.566q.322-.34.679-.732a6.364,6.364,0,0,1,.793-.732,4.313,4.313,0,0,1,.967-.566,3.11,3.11,0,0,1,1.228-.226M29.151,39.77a6.79,6.79,0,0,0,1.786-.2,4.476,4.476,0,0,0,1.3-.584,7.153,7.153,0,0,0,1.124-.941q.549-.557,1.263-1.272a1.189,1.189,0,0,0,.366-.871,1.382,1.382,0,0,0-.279-.653A10.4,10.4,0,0,0,34,34.309a14.06,14.06,0,0,0-.958-1.036q-.531-.523-1.036-.958a8.95,8.95,0,0,0-.932-.714,1.382,1.382,0,0,0-.653-.279,1.214,1.214,0,0,0-.7.226,4.1,4.1,0,0,0-.653.566q-.322.34-.679.732a6.364,6.364,0,0,1-.793.732,4.313,4.313,0,0,1-.967.566,3.062,3.062,0,0,1-1.211.226,3.375,3.375,0,0,1-1.333-.27,3.52,3.52,0,0,1-1.124-.758l-8.309-8.309a3.52,3.52,0,0,1-.758-1.124,3.375,3.375,0,0,1-.27-1.333,3.062,3.062,0,0,1,.226-1.211,4.313,4.313,0,0,1,.566-.967,6.364,6.364,0,0,1,.732-.793q.392-.357.732-.688a4.678,4.678,0,0,0,.566-.653,1.175,1.175,0,0,0,.226-.688,1.339,1.339,0,0,0-.279-.645A11.293,11.293,0,0,0,15.694,16q-.427-.514-.958-1.045T13.691,14a11.293,11.293,0,0,0-.932-.705,1.339,1.339,0,0,0-.645-.279,1.21,1.21,0,0,0-.888.366q-.714.714-1.272,1.254a6.662,6.662,0,0,0-.941,1.124,4.62,4.62,0,0,0-.584,1.3,6.61,6.61,0,0,0-.2,1.759,11.922,11.922,0,0,0,.54,3.458,19.38,19.38,0,0,0,1.507,3.58,26.169,26.169,0,0,0,2.291,3.519,32.579,32.579,0,0,0,2.874,3.266,31.792,31.792,0,0,0,3.284,2.848,27.608,27.608,0,0,0,3.51,2.265,19.081,19.081,0,0,0,3.536,1.489,11.679,11.679,0,0,0,3.379.531M35,24H24V13.013L26,13v7.347L36.432,10,38,11.567,27.653,22h7.334Z" fill="#404040"/></svg>